<svg width="401" height="216" viewBox="0 0 401 216" fill="none" xmlns="http://www.w3.org/2000/svg">
<rect x="133" y="201" width="134" height="5" rx="2.5" fill="black"/>
<path d="M203.861 32.4545C203.861 33.8352 203.612 35.0284 203.113 36.0341C202.615 37.0398 201.931 37.8153 201.061 38.3608C200.192 38.9062 199.199 39.179 198.083 39.179C196.966 39.179 195.973 38.9062 195.104 38.3608C194.235 37.8153 193.551 37.0398 193.052 36.0341C192.554 35.0284 192.304 33.8352 192.304 32.4545C192.304 31.0739 192.554 29.8807 193.052 28.875C193.551 27.8693 194.235 27.0938 195.104 26.5483C195.973 26.0028 196.966 25.7301 198.083 25.7301C199.199 25.7301 200.192 26.0028 201.061 26.5483C201.931 27.0938 202.615 27.8693 203.113 28.875C203.612 29.8807 203.861 31.0739 203.861 32.4545ZM202.327 32.4545C202.327 31.321 202.137 30.3643 201.758 29.5845C201.383 28.8047 200.874 28.2145 200.23 27.8139C199.591 27.4134 198.875 27.2131 198.083 27.2131C197.29 27.2131 196.572 27.4134 195.929 27.8139C195.289 28.2145 194.78 28.8047 194.401 29.5845C194.026 30.3643 193.838 31.321 193.838 32.4545C193.838 33.5881 194.026 34.5447 194.401 35.3246C194.78 36.1044 195.289 36.6946 195.929 37.0952C196.572 37.4957 197.29 37.696 198.083 37.696C198.875 37.696 199.591 37.4957 200.23 37.0952C200.874 36.6946 201.383 36.1044 201.758 35.3246C202.137 34.5447 202.327 33.5881 202.327 32.4545ZM217.572 32.4545C217.572 33.8352 217.323 35.0284 216.824 36.0341C216.326 37.0398 215.642 37.8153 214.772 38.3608C213.903 38.9062 212.91 39.179 211.794 39.179C210.677 39.179 209.684 38.9062 208.815 38.3608C207.946 37.8153 207.262 37.0398 206.763 36.0341C206.265 35.0284 206.015 33.8352 206.015 32.4545C206.015 31.0739 206.265 29.8807 206.763 28.875C207.262 27.8693 207.946 27.0938 208.815 26.5483C209.684 26.0028 210.677 25.7301 211.794 25.7301C212.91 25.7301 213.903 26.0028 214.772 26.5483C215.642 27.0938 216.326 27.8693 216.824 28.875C217.323 29.8807 217.572 31.0739 217.572 32.4545ZM216.038 32.4545C216.038 31.321 215.848 30.3643 215.469 29.5845C215.094 28.8047 214.585 28.2145 213.941 27.8139C213.302 27.4134 212.586 27.2131 211.794 27.2131C211.001 27.2131 210.283 27.4134 209.64 27.8139C209 28.2145 208.491 28.8047 208.112 29.5845C207.737 30.3643 207.549 31.321 207.549 32.4545C207.549 33.5881 207.737 34.5447 208.112 35.3246C208.491 36.1044 209 36.6946 209.64 37.0952C210.283 37.4957 211.001 37.696 211.794 37.696C212.586 37.696 213.302 37.4957 213.941 37.0952C214.585 36.6946 215.094 36.1044 215.469 35.3246C215.848 34.5447 216.038 33.5881 216.038 32.4545ZM230.892 26.382V26.202H221.352V25.014H232.35V26.382C232.35 27.678 232.35 28.992 231.9 30.648L230.46 30.486C230.892 28.83 230.892 27.642 230.892 26.382ZM226.842 39.162C229.38 39.162 231 38.478 231 37.362C231 36.21 229.38 35.526 226.842 35.526C224.322 35.526 222.702 36.21 222.702 37.362C222.702 38.478 224.322 39.162 226.842 39.162ZM226.842 34.392C230.28 34.392 232.476 35.49 232.476 37.362C232.476 39.198 230.28 40.314 226.842 40.314C223.404 40.314 221.226 39.198 221.226 37.362C221.226 35.49 223.404 34.392 226.842 34.392ZM227.076 31.71H234.168V32.898H219.642V31.71H225.6V28.614H227.076V31.71ZM244.625 33.726H247.901V24.186H249.377V36.48H247.901V34.824H244.625V33.726ZM241.331 25.932C239.801 25.932 238.757 26.616 238.757 27.642C238.757 28.686 239.801 29.37 241.331 29.37C242.861 29.37 243.905 28.686 243.905 27.642C243.905 26.616 242.861 25.932 241.331 25.932ZM241.331 30.468C238.973 30.468 237.353 29.37 237.353 27.642C237.353 25.95 238.973 24.834 241.331 24.834C243.689 24.834 245.309 25.95 245.309 27.642C245.309 29.37 243.689 30.468 241.331 30.468ZM240.755 35.904V32.79C239.153 32.862 237.605 32.88 236.273 32.88L236.075 31.656C239.063 31.656 243.059 31.62 246.479 31.188L246.605 32.25C245.183 32.466 243.689 32.628 242.231 32.718V35.904H240.755ZM239.855 38.766H249.791V39.972H238.379V35.274H239.855V38.766Z" fill="black"/>
<path d="M201.861 66.4545C201.861 67.8352 201.612 69.0284 201.113 70.0341C200.615 71.0398 199.931 71.8153 199.061 72.3608C198.192 72.9062 197.199 73.179 196.083 73.179C194.966 73.179 193.973 72.9062 193.104 72.3608C192.235 71.8153 191.551 71.0398 191.052 70.0341C190.554 69.0284 190.304 67.8352 190.304 66.4545C190.304 65.0739 190.554 63.8807 191.052 62.875C191.551 61.8693 192.235 61.0938 193.104 60.5483C193.973 60.0028 194.966 59.7301 196.083 59.7301C197.199 59.7301 198.192 60.0028 199.061 60.5483C199.931 61.0938 200.615 61.8693 201.113 62.875C201.612 63.8807 201.861 65.0739 201.861 66.4545ZM200.327 66.4545C200.327 65.321 200.137 64.3643 199.758 63.5845C199.383 62.8047 198.874 62.2145 198.23 61.8139C197.591 61.4134 196.875 61.2131 196.083 61.2131C195.29 61.2131 194.572 61.4134 193.929 61.8139C193.289 62.2145 192.78 62.8047 192.401 63.5845C192.026 64.3643 191.838 65.321 191.838 66.4545C191.838 67.5881 192.026 68.5447 192.401 69.3246C192.78 70.1044 193.289 70.6946 193.929 71.0952C194.572 71.4957 195.29 71.696 196.083 71.696C196.875 71.696 197.591 71.4957 198.23 71.0952C198.874 70.6946 199.383 70.1044 199.758 69.3246C200.137 68.5447 200.327 67.5881 200.327 66.4545ZM215.572 66.4545C215.572 67.8352 215.323 69.0284 214.824 70.0341C214.326 71.0398 213.642 71.8153 212.772 72.3608C211.903 72.9062 210.91 73.179 209.794 73.179C208.677 73.179 207.684 72.9062 206.815 72.3608C205.946 71.8153 205.262 71.0398 204.763 70.0341C204.265 69.0284 204.015 67.8352 204.015 66.4545C204.015 65.0739 204.265 63.8807 204.763 62.875C205.262 61.8693 205.946 61.0938 206.815 60.5483C207.684 60.0028 208.677 59.7301 209.794 59.7301C210.91 59.7301 211.903 60.0028 212.772 60.5483C213.642 61.0938 214.326 61.8693 214.824 62.875C215.323 63.8807 215.572 65.0739 215.572 66.4545ZM214.038 66.4545C214.038 65.321 213.848 64.3643 213.469 63.5845C213.094 62.8047 212.585 62.2145 211.941 61.8139C211.302 61.4134 210.586 61.2131 209.794 61.2131C209.001 61.2131 208.283 61.4134 207.64 61.8139C207 62.2145 206.491 62.8047 206.112 63.5845C205.737 64.3643 205.549 65.321 205.549 66.4545C205.549 67.5881 205.737 68.5447 206.112 69.3246C206.491 70.1044 207 70.6946 207.64 71.0952C208.283 71.4957 209.001 71.696 209.794 71.696C210.586 71.696 211.302 71.4957 211.941 71.0952C212.585 70.6946 213.094 70.1044 213.469 69.3246C213.848 68.5447 214.038 67.5881 214.038 66.4545ZM228.892 60.382V60.202H219.352V59.014H230.35V60.382C230.35 61.678 230.35 62.992 229.9 64.648L228.46 64.486C228.892 62.83 228.892 61.642 228.892 60.382ZM224.842 73.162C227.38 73.162 229 72.478 229 71.362C229 70.21 227.38 69.526 224.842 69.526C222.322 69.526 220.702 70.21 220.702 71.362C220.702 72.478 222.322 73.162 224.842 73.162ZM224.842 68.392C228.28 68.392 230.476 69.49 230.476 71.362C230.476 73.198 228.28 74.314 224.842 74.314C221.404 74.314 219.226 73.198 219.226 71.362C219.226 69.49 221.404 68.392 224.842 68.392ZM225.076 65.71H232.168V66.898H217.642V65.71H223.6V62.614H225.076V65.71ZM242.625 67.726H245.901V58.186H247.377V70.48H245.901V68.824H242.625V67.726ZM239.331 59.932C237.801 59.932 236.757 60.616 236.757 61.642C236.757 62.686 237.801 63.37 239.331 63.37C240.861 63.37 241.905 62.686 241.905 61.642C241.905 60.616 240.861 59.932 239.331 59.932ZM239.331 64.468C236.973 64.468 235.353 63.37 235.353 61.642C235.353 59.95 236.973 58.834 239.331 58.834C241.689 58.834 243.309 59.95 243.309 61.642C243.309 63.37 241.689 64.468 239.331 64.468ZM238.755 69.904V66.79C237.153 66.862 235.605 66.88 234.273 66.88L234.075 65.656C237.063 65.656 241.059 65.62 244.479 65.188L244.605 66.25C243.183 66.466 241.689 66.628 240.231 66.718V69.904H238.755ZM237.855 72.766H247.791V73.972H236.379V69.274H237.855V72.766Z" fill="black"/>
<g filter="url(#filter0_d_251_5104)">
<rect x="339" y="62" width="50" height="50" rx="10" fill="#5079F5"/>
</g>
<path d="M356.909 94.124V99.62H355.925V94.124H356.909ZM348.797 94.652H353.693C353.693 97.388 351.785 99.116 348.617 99.836L348.257 99.044C350.945 98.456 352.469 97.172 352.625 95.456H348.797V94.652ZM350.945 104H357.269V104.78H349.961V102.02H355.925V100.916H349.937V100.136H356.909V102.752H350.945V104ZM365.416 99.284L364.948 100.04C363.724 99.68 362.788 98.888 362.308 97.88C361.84 98.996 360.856 99.848 359.596 100.256L359.116 99.476C360.712 98.996 361.804 97.772 361.804 96.356V96.176H359.416V95.384H361.804V94.076H362.788V95.384H365.164V96.176H362.788V96.356C362.788 97.652 363.832 98.828 365.416 99.284ZM367.648 101.744H364.636C364.816 102.848 366.34 103.82 368.068 104.096L367.696 104.852C366.136 104.588 364.732 103.808 364.12 102.74C363.52 103.82 362.128 104.576 360.544 104.84L360.196 104.084C361.924 103.82 363.448 102.872 363.604 101.744H360.604V100.952H367.648V101.744ZM367.468 96.788H369.064V97.604H367.468V100.376H366.484V94.136H367.468V96.788ZM370.792 95.288H375.832C375.832 98.396 374.404 101.132 370.828 102.884L370.3 102.08C373.192 100.7 374.632 98.636 374.836 96.08H370.792V95.288ZM378.004 94.124H378.988V104.888H378.004V94.124Z" fill="white"/>
<path d="M362.215 70.8443C362.446 70.4821 362.882 70.3079 363.299 70.4116L366.332 71.1655C366.974 71.3253 367.287 72.0546 366.96 72.6303L363.043 79.5165C362.957 79.6672 362.912 79.8375 362.912 80.0109L362.912 88.6519C362.912 89.2042 362.465 89.6519 361.912 89.6519L358.774 89.6519C358.222 89.6519 357.774 89.2042 357.774 88.652L357.773 78.1022C357.773 77.9117 357.827 77.7251 357.93 77.5644L362.215 70.8443Z" fill="white"/>
<path d="M366.313 65.9181C366.844 65.7037 367.447 65.9791 367.633 66.5215L369.995 73.4177C370.279 74.2484 369.432 75.0163 368.633 74.6513L359.511 70.482C358.712 70.117 358.738 68.9736 359.552 68.6451L366.313 65.9181Z" fill="white"/>
<g filter="url(#filter1_d_251_5104)">
<circle cx="364" cy="31" r="19" fill="white"/>
</g>
<circle cx="364" cy="31" r="9.25676" stroke="#2D6AF6"/>
<circle cx="364" cy="31.0001" r="1.54054" fill="#2D6AF6"/>
<line x1="369.649" y1="31.0137" x2="372.896" y2="31.0137" stroke="#2D6AF6"/>
<line x1="355.27" y1="31.0137" x2="358.518" y2="31.0137" stroke="#2D6AF6"/>
<line x1="364.013" y1="25.5182" x2="364.013" y2="22.2704" stroke="#2D6AF6"/>
<line x1="364.013" y1="39.8966" x2="364.013" y2="36.6489" stroke="#2D6AF6"/>
<g filter="url(#filter2_d_251_5104)">
<path d="M4 16C4 10.4772 8.47715 6 14 6H387C392.523 6 397 10.4772 397 16V214H4V16Z" fill="white"/>
</g>
<path d="M40.9631 36.62V38.72H25.7831V36.62H32.0431V34.5H34.6831V36.62H40.9631ZM31.6431 46.46V48.78H35.0831V46.46C34.5431 46.52 33.9631 46.56 33.3431 46.56C32.7431 46.56 32.1631 46.52 31.6431 46.46ZM33.3631 41.48C31.0431 41.48 29.8231 41.98 29.8231 43.02C29.8231 44.04 31.0431 44.54 33.3631 44.54C35.6831 44.54 36.9031 44.04 36.9031 43.02C36.9031 41.98 35.6831 41.48 33.3631 41.48ZM37.6831 48.78H41.7431V50.92H25.0631V48.78H29.0431V45.76C27.8031 45.16 27.1031 44.22 27.1031 43.02C27.1031 40.78 29.5031 39.46 33.3631 39.46C37.2231 39.46 39.6031 40.78 39.6031 43.02C39.6031 44.2 38.9231 45.14 37.6831 45.74V48.78ZM54.4816 42.78L53.2816 44.82C51.2216 44.28 49.8016 43.14 48.9616 41.7C48.1616 43.36 46.7016 44.68 44.5816 45.3L43.3216 43.24C46.2616 42.4 47.5416 40.36 47.5816 38.28H43.9816V36.22H47.5816V34.24H50.2216V36.22H53.8616V38.28H50.2216C50.2616 40.14 51.5416 42.02 54.4816 42.78ZM51.9416 50.7C54.3016 50.7 55.5416 50.24 55.5416 49.24C55.5416 48.24 54.3016 47.78 51.9416 47.78C49.5616 47.78 48.3216 48.24 48.3216 49.24C48.3216 50.24 49.5616 50.7 51.9416 50.7ZM51.9416 45.74C55.7816 45.74 58.1616 47.04 58.1616 49.24C58.1616 51.44 55.7816 52.72 51.9416 52.72C48.0816 52.72 45.7016 51.44 45.7016 49.24C45.7016 47.04 48.0816 45.74 51.9416 45.74ZM57.9616 38.62H60.4016V40.78H57.9616V45.4H55.3216V34.3H57.9616V38.62ZM76 41.56L73.4 41.3C73.82 39.66 73.88 38.42 73.88 37.2H63.76V35.12H76.52V36.64C76.52 38.1 76.52 39.66 76 41.56ZM70.08 50.74C72.58 50.74 74 50.24 74 49.26C74 48.26 72.58 47.76 70.08 47.76C67.6 47.76 66.18 48.26 66.18 49.26C66.18 50.24 67.6 50.74 70.08 50.74ZM70.08 45.78C74.06 45.78 76.62 47.1 76.62 49.26C76.62 51.4 74.06 52.72 70.08 52.72C66.12 52.72 63.56 51.4 63.56 49.26C63.56 47.1 66.12 45.78 70.08 45.78ZM70.68 42.54H78.48V44.62H61.9V42.54H68.04V39.32H70.68V42.54ZM89.6584 45H93.1184V34.3H95.7584V48.26H93.1184V46.8H89.6584V45ZM86.1184 36.84C84.8784 36.84 84.0184 37.32 84.0184 38.22C84.0184 39.12 84.8784 39.58 86.1184 39.58C87.3384 39.58 88.1984 39.12 88.1984 38.22C88.1984 37.32 87.3384 36.84 86.1184 36.84ZM86.1184 41.5C83.4184 41.5 81.5384 40.18 81.5384 38.22C81.5384 36.26 83.4184 34.92 86.1184 34.92C88.7984 34.92 90.6984 36.26 90.6984 38.22C90.6984 40.18 88.7984 41.5 86.1184 41.5ZM85.1384 50.3H96.1584V52.4H82.4984V46.92H85.0584V44.46C83.4384 44.54 81.8984 44.56 80.5184 44.56L80.1784 42.46C83.5384 42.44 88.0184 42.4 91.8984 41.9L92.0784 43.78C90.6384 44.02 89.1584 44.18 87.6784 44.3V47.78H85.1384V50.3Z" fill="#0067C3"/>
<path d="M108.721 46.626V50.748H118.567V51.954H107.263V46.626H108.721ZM117.685 43.62H119.989V44.808H105.319V43.62H116.191C116.641 41.388 116.641 39.804 116.641 38.4V38.346H107.191V37.14H118.099V38.4C118.099 39.786 118.099 41.424 117.685 43.62ZM135.125 36.204V48.084H133.649V36.204H135.125ZM131.723 44.052L131.867 45.258C129.293 45.69 127.133 45.798 124.037 45.798H122.741V40.884H128.573V38.526H122.687V37.338H130.031V42H124.181V44.592C127.133 44.592 129.239 44.484 131.723 44.052ZM126.071 50.766H135.575V51.972H124.595V47.166H126.071V50.766ZM149.74 38.382V38.202H140.2V37.014H151.198V38.382C151.198 39.678 151.198 40.992 150.748 42.648L149.308 42.486C149.74 40.83 149.74 39.642 149.74 38.382ZM145.69 51.162C148.228 51.162 149.848 50.478 149.848 49.362C149.848 48.21 148.228 47.526 145.69 47.526C143.17 47.526 141.55 48.21 141.55 49.362C141.55 50.478 143.17 51.162 145.69 51.162ZM145.69 46.392C149.128 46.392 151.324 47.49 151.324 49.362C151.324 51.198 149.128 52.314 145.69 52.314C142.252 52.314 140.074 51.198 140.074 49.362C140.074 47.49 142.252 46.392 145.69 46.392ZM145.924 43.71H153.016V44.898H138.49V43.71H144.448V40.614H145.924V43.71ZM163.473 45.726H166.749V36.186H168.225V48.48H166.749V46.824H163.473V45.726ZM160.179 37.932C158.649 37.932 157.605 38.616 157.605 39.642C157.605 40.686 158.649 41.37 160.179 41.37C161.709 41.37 162.753 40.686 162.753 39.642C162.753 38.616 161.709 37.932 160.179 37.932ZM160.179 42.468C157.821 42.468 156.201 41.37 156.201 39.642C156.201 37.95 157.821 36.834 160.179 36.834C162.537 36.834 164.157 37.95 164.157 39.642C164.157 41.37 162.537 42.468 160.179 42.468ZM159.603 47.904V44.79C158.001 44.862 156.453 44.88 155.121 44.88L154.923 43.656C157.911 43.656 161.907 43.62 165.327 43.188L165.453 44.25C164.031 44.466 162.537 44.628 161.079 44.718V47.904H159.603ZM158.703 50.766H168.639V51.972H157.227V47.274H158.703V50.766Z" fill="#A4A4A4"/>
<path d="M31.9137 76.458V73.794H27.3417V76.458H31.9137ZM33.3537 70.212V77.646H25.8837V70.212H27.3417V72.642H31.9137V70.212H33.3537ZM32.6157 84.162C34.9917 84.162 36.4497 83.478 36.4497 82.326C36.4497 81.174 34.9917 80.508 32.6157 80.508C30.2037 80.508 28.7637 81.174 28.7637 82.326C28.7637 83.478 30.2037 84.162 32.6157 84.162ZM32.6157 79.32C35.8917 79.32 37.9257 80.418 37.9257 82.326C37.9257 84.234 35.8917 85.332 32.6157 85.332C29.3217 85.332 27.2877 84.234 27.2877 82.326C27.2877 80.418 29.3217 79.32 32.6157 79.32ZM37.7457 73.254H40.1397V74.478H37.7457V78.906H36.2697V69.186H37.7457V73.254ZM53.0443 74.424V71.13H45.0883V74.424H53.0443ZM54.5023 69.942V75.612H43.6483V69.942H54.5023ZM45.0883 80.364V83.766H54.7723V84.972H43.6123V80.364H45.0883ZM41.7403 77.448H56.4103V78.636H49.9303V81.894H48.4543V78.636H41.7403V77.448ZM63.7709 72.066V74.118C63.7709 76.692 65.6069 79.554 67.9469 80.652L67.1009 81.84C65.3009 80.94 63.7889 79.05 63.0509 76.89C62.3129 79.248 60.7469 81.3 58.9289 82.236L58.0649 81.066C60.3689 79.914 62.3129 76.854 62.3129 74.118V72.066H58.6229V70.842H67.3529V72.066H63.7709ZM73.4189 75.702V76.944H70.7549V85.332H69.2789V69.204H70.7549V75.702H73.4189ZM77.3055 76.44V80.22C79.9515 80.22 82.3275 80.094 85.1535 79.644L85.2975 80.85C82.3815 81.336 79.9335 81.444 77.1615 81.444H75.8295V75.252H81.7695V71.886H75.7755V70.68H83.2635V76.44H77.3055ZM86.6655 69.168H88.1415V85.35H86.6655V69.168ZM102.756 75.504V73.164H94.746V75.504H102.756ZM104.232 69.816V76.692H93.288V69.816H94.746V71.976H102.756V69.816H104.232ZM106.086 78.618V79.824H102.378V85.332H100.902V79.824H96.6V85.332H95.124V79.824H91.434V78.618H106.086ZM118.077 70.9091V84H116.491V72.571H116.415L113.219 74.6932V73.0824L116.491 70.9091H118.077ZM126.111 84.179C125.148 84.179 124.328 83.9169 123.65 83.3928C122.973 82.8643 122.455 82.0994 122.097 81.098C121.739 80.0923 121.56 78.8778 121.56 77.4545C121.56 76.0398 121.739 74.8317 122.097 73.8303C122.459 72.8246 122.979 72.0575 123.657 71.5291C124.339 70.9964 125.157 70.7301 126.111 70.7301C127.066 70.7301 127.882 70.9964 128.559 71.5291C129.241 72.0575 129.761 72.8246 130.119 73.8303C130.481 74.8317 130.662 76.0398 130.662 77.4545C130.662 78.8778 130.483 80.0923 130.126 81.098C129.768 82.0994 129.25 82.8643 128.572 83.3928C127.895 83.9169 127.074 84.179 126.111 84.179ZM126.111 82.7727C127.066 82.7727 127.807 82.3125 128.336 81.392C128.864 80.4716 129.128 79.1591 129.128 77.4545C129.128 76.321 129.007 75.3558 128.764 74.5589C128.525 73.7621 128.18 73.1548 127.729 72.7372C127.281 72.3196 126.742 72.1108 126.111 72.1108C125.165 72.1108 124.426 72.5774 123.893 73.5107C123.361 74.4396 123.094 75.7543 123.094 77.4545C123.094 78.5881 123.214 79.5511 123.452 80.3438C123.691 81.1364 124.034 81.7393 124.481 82.1527C124.933 82.5661 125.476 82.7727 126.111 82.7727Z" fill="black"/>
<path d="M29.02 114.179C28.0654 114.179 27.2153 114.015 26.4695 113.687C25.7281 113.354 25.1421 112.898 24.7117 112.319C24.2856 111.735 24.0661 111.062 24.0534 110.299H26.8403C26.8573 110.619 26.9617 110.9 27.1535 111.143C27.3495 111.381 27.6095 111.567 27.9333 111.699C28.2572 111.831 28.6215 111.897 29.0264 111.897C29.4482 111.897 29.8211 111.822 30.145 111.673C30.4688 111.524 30.7224 111.317 30.9056 111.053C31.0889 110.789 31.1805 110.484 31.1805 110.139C31.1805 109.79 31.0825 109.481 30.8865 109.212C30.6947 108.94 30.4177 108.727 30.0555 108.573C29.6975 108.42 29.2714 108.343 28.7771 108.343H27.5562V106.31H28.7771C29.1947 106.31 29.5633 106.238 29.8829 106.093C30.2068 105.948 30.4582 105.748 30.6372 105.492C30.8161 105.232 30.9056 104.93 30.9056 104.585C30.9056 104.256 30.8268 103.969 30.6691 103.722C30.5157 103.47 30.2984 103.274 30.0171 103.134C29.7401 102.993 29.4163 102.923 29.0455 102.923C28.6705 102.923 28.3275 102.991 28.0164 103.127C27.7053 103.259 27.4561 103.449 27.2686 103.696C27.0811 103.943 26.9809 104.233 26.9681 104.565H24.3154C24.3282 103.811 24.5434 103.146 24.961 102.571C25.3786 101.996 25.9411 101.546 26.6485 101.222C27.3602 100.894 28.1634 100.73 29.0583 100.73C29.9617 100.73 30.7522 100.894 31.4298 101.222C32.1073 101.55 32.6336 101.994 33.0086 102.552C33.3879 103.106 33.5754 103.728 33.5711 104.418C33.5754 105.151 33.3474 105.763 32.8872 106.253C32.4312 106.743 31.8367 107.054 31.1038 107.186V107.288C32.0669 107.412 32.7998 107.746 33.3026 108.292C33.8097 108.833 34.0612 109.511 34.0569 110.325C34.0612 111.07 33.846 111.733 33.4113 112.312C32.9809 112.892 32.3865 113.348 31.6279 113.68C30.8694 114.013 30.0001 114.179 29.02 114.179ZM38.5393 111.175L38.5457 107.908H38.942L42.0869 104.182H45.2126L40.9875 109.116H40.3419L38.5393 111.175ZM36.072 114V100.909H38.795V114H36.072ZM42.2084 114L39.3192 109.724L41.1345 107.8L45.398 114H42.2084ZM46.5486 114V104.182H49.1437V105.914H49.2588C49.4633 105.339 49.8042 104.885 50.2815 104.553C50.7588 104.22 51.3298 104.054 51.9946 104.054C52.6679 104.054 53.241 104.222 53.714 104.559C54.1871 104.891 54.5024 105.343 54.6601 105.914H54.7623C54.9626 105.352 55.3248 104.902 55.849 104.565C56.3774 104.224 57.0017 104.054 57.7219 104.054C58.6381 104.054 59.3817 104.346 59.9527 104.93C60.528 105.509 60.8156 106.332 60.8156 107.397V114H58.099V107.934C58.099 107.388 57.9541 106.979 57.6643 106.707C57.3746 106.434 57.0123 106.298 56.5777 106.298C56.0834 106.298 55.6977 106.455 55.4207 106.771C55.1437 107.082 55.0052 107.493 55.0052 108.004V114H52.3653V107.876C52.3653 107.395 52.2268 107.011 51.9498 106.726C51.6771 106.44 51.317 106.298 50.8696 106.298C50.567 106.298 50.2943 106.374 50.0514 106.528C49.8128 106.677 49.6231 106.888 49.4825 107.161C49.3419 107.429 49.2716 107.744 49.2716 108.107V114H46.5486Z" fill="black"/>
<path d="M88.899 100.572V103.47C88.899 106.404 90.735 109.338 93.075 110.454L92.211 111.624C90.375 110.706 88.899 108.78 88.161 106.512C87.459 108.906 85.965 110.94 84.147 111.912L83.247 110.742C85.587 109.572 87.423 106.458 87.423 103.47V100.572H88.899ZM95.073 99.186H96.549V115.35H95.073V105.864H91.329V104.658H95.073V99.186ZM107.096 100.482C104.45 100.482 102.938 101.094 102.938 102.174C102.938 103.254 104.45 103.866 107.096 103.866C109.742 103.866 111.254 103.254 111.254 102.174C111.254 101.094 109.742 100.482 107.096 100.482ZM107.096 104.964C103.55 104.964 101.426 103.992 101.426 102.174C101.426 100.356 103.55 99.366 107.096 99.366C110.66 99.366 112.766 100.356 112.766 102.174C112.766 103.992 110.66 104.964 107.096 104.964ZM114.386 107.214H107.834V108.726H112.532V112.362H103.046V114H113.018V115.152H101.606V111.282H111.074V109.842H101.57V108.726H106.358V107.214H99.8056V106.026H114.386V107.214ZM122.088 100.59V103.488C122.088 106.44 124.014 109.41 126.408 110.49L125.526 111.678C123.69 110.778 122.142 108.87 121.368 106.566C120.63 108.996 119.082 111.012 117.192 111.984L116.292 110.778C118.668 109.644 120.63 106.548 120.63 103.488V100.59H122.088ZM128.1 99.186H129.576V115.368H128.1V99.186ZM140.073 101.994V110.04H144.591V101.994H140.073ZM138.633 111.228V100.806H146.031V111.228H138.633ZM153.069 105.63V106.872H150.405V115.332H148.929V99.204H150.405V105.63H153.069ZM159.818 101.922V107.214H163.832V101.922H159.818ZM162.572 112.11H169.178V113.316H154.544V112.11H161.078V108.402H155.876V107.214H158.342V101.922H155.84V100.734H167.81V101.922H165.308V107.214H167.774V108.402H162.572V112.11ZM185.718 107.178V108.384H179.13V115.35H177.636V108.384H171.12V107.178H181.83C182.334 104.856 182.334 103.146 182.334 101.634V101.418H172.938V100.23H183.774V101.634C183.774 103.146 183.774 104.856 183.324 107.178H185.718Z" fill="black"/>
<path d="M157.658 73.668V72.12H149.81V73.668H157.658ZM159.116 69.474V74.802H148.352V69.474H149.81V71.004H157.658V69.474H159.116ZM149.666 82.416V84.018H159.638V85.152H148.226V81.354H157.694V79.932H148.172V78.816H159.152V82.416H149.666ZM146.408 76.17H161.024V77.34H146.408V76.17ZM171.03 82.128H177.636V83.334H162.966V82.128H169.536V79.086H164.802V74.1H174.378V71.58H164.766V70.374H175.818V75.288H166.26V77.898H176.196V79.086H171.03V82.128ZM190.739 72.516V72.102H181.127V70.896H192.197V72.516C192.197 74.568 192.197 76.89 191.567 80.382L190.091 80.22C190.739 76.926 190.739 74.514 190.739 72.516ZM179.561 81.75H194.159V82.974H179.561V81.75ZM198.513 76.44V80.22C201.159 80.22 203.535 80.094 206.361 79.644L206.505 80.85C203.589 81.336 201.141 81.444 198.369 81.444H197.037V75.252H202.977V71.886H196.983V70.68H204.471V76.44H198.513ZM207.873 69.168H209.349V85.35H207.873V69.168ZM223.964 75.504V73.164H215.954V75.504H223.964ZM225.44 69.816V76.692H214.496V69.816H215.954V71.976H223.964V69.816H225.44ZM227.294 78.618V79.824H223.586V85.332H222.11V79.824H217.808V85.332H216.332V79.824H212.642V78.618H227.294ZM238.773 84.179C238.023 84.179 237.348 84.0298 236.747 83.7315C236.146 83.4332 235.665 83.0241 235.302 82.5043C234.94 81.9844 234.742 81.392 234.708 80.7273H236.242C236.302 81.3196 236.57 81.8097 237.047 82.1974C237.529 82.581 238.104 82.7727 238.773 82.7727C239.31 82.7727 239.787 82.647 240.205 82.3956C240.627 82.1442 240.957 81.799 241.196 81.3601C241.439 80.9169 241.56 80.4162 241.56 79.858C241.56 79.2869 241.434 78.7777 241.183 78.3303C240.936 77.8786 240.595 77.5227 240.16 77.2628C239.726 77.0028 239.229 76.8707 238.671 76.8665C238.27 76.8622 237.859 76.924 237.437 77.0518C237.015 77.1754 236.668 77.3352 236.395 77.5312L234.912 77.3523L235.705 70.9091H242.506V72.3153H237.035L236.574 76.1761H236.651C236.919 75.9631 237.256 75.7862 237.661 75.6456C238.066 75.505 238.488 75.4347 238.927 75.4347C239.728 75.4347 240.441 75.6264 241.068 76.0099C241.699 76.3892 242.193 76.9091 242.551 77.5696C242.913 78.2301 243.094 78.9844 243.094 79.8324C243.094 80.6676 242.907 81.4134 242.532 82.0696C242.161 82.7216 241.65 83.2372 240.998 83.6165C240.346 83.9915 239.604 84.179 238.773 84.179ZM249.903 84.179C248.94 84.179 248.12 83.9169 247.442 83.3928C246.765 82.8643 246.247 82.0994 245.889 81.098C245.531 80.0923 245.352 78.8778 245.352 77.4545C245.352 76.0398 245.531 74.8317 245.889 73.8303C246.251 72.8246 246.771 72.0575 247.449 71.5291C248.131 70.9964 248.949 70.7301 249.903 70.7301C250.858 70.7301 251.674 70.9964 252.351 71.5291C253.033 72.0575 253.553 72.8246 253.911 73.8303C254.273 74.8317 254.454 76.0398 254.454 77.4545C254.454 78.8778 254.275 80.0923 253.918 81.098C253.56 82.0994 253.042 82.8643 252.364 83.3928C251.687 83.9169 250.866 84.179 249.903 84.179ZM249.903 82.7727C250.858 82.7727 251.599 82.3125 252.128 81.392C252.656 80.4716 252.92 79.1591 252.92 77.4545C252.92 76.321 252.799 75.3558 252.556 74.5589C252.317 73.7621 251.972 73.1548 251.521 72.7372C251.073 72.3196 250.534 72.1108 249.903 72.1108C248.957 72.1108 248.218 72.5774 247.685 73.5107C247.153 74.4396 246.886 75.7543 246.886 77.4545C246.886 78.5881 247.006 79.5511 247.244 80.3438C247.483 81.1364 247.826 81.7393 248.273 82.1527C248.725 82.5661 249.268 82.7727 249.903 82.7727Z" fill="black"/>
<line x1="4" y1="139.5" x2="397" y2="139.5" stroke="#EDEDED"/>
<rect x="224.5" y="152.5" width="72" height="37" rx="18.5" fill="white" stroke="#006BFF"/>
<path d="M245.601 169.63L245.169 168.514C248.157 168.316 250.623 167.326 250.875 165.724H245.889V164.608H250.965V163.078H252.441V164.608H257.499V165.724H252.531C252.783 167.326 255.213 168.316 258.219 168.514L257.769 169.63C255.069 169.414 252.693 168.586 251.703 167.092C250.713 168.586 248.319 169.414 245.601 169.63ZM258.975 171.484H252.441V172.978H257.121V176.506H247.635V178.036H257.607V179.152H246.195V175.444H255.663V174.076H246.141V172.978H250.947V171.484H244.413V170.35H258.975V171.484ZM267.65 169.72V167.308H263.078V169.72H267.65ZM269.09 163.852V170.908H261.62V163.852H263.078V166.174H267.65V163.852H269.09ZM264.716 176.218V177.982H274.076V179.152H263.276V175.12H272.024V173.464H263.222V172.294H273.482V176.218H264.716ZM273.482 166.66H275.876V167.884H273.482V171.538H272.006V163.204H273.482V166.66Z" fill="#006BFF"/>
<rect x="305" y="152" width="73" height="38" rx="19" fill="#006BFF"/>
<path d="M333.441 176.074H340.047V177.298H325.377V176.074H331.947V171.934H327.249V164.482H338.193V165.688H328.725V170.746H338.355V171.934H333.441V176.074ZM351.386 171.25L350.666 172.402C348.848 171.826 347.444 170.602 346.742 169.036C346.04 170.746 344.582 172.06 342.71 172.708L341.972 171.538C344.366 170.782 345.986 168.874 345.986 166.678V166.354H342.404V165.166H345.986V163.096H347.462V165.166H351.026V166.354H347.462V166.678C347.462 168.694 349.028 170.53 351.386 171.25ZM343.988 175.084V173.878H354.482V179.332H353.006V175.084H343.988ZM356.876 167.488V168.73H354.482V173.032H353.006V163.204H354.482V167.488H356.876Z" fill="white"/>
<line x1="185.5" y1="22" x2="215.5" y2="22" stroke="#CAD1DB" stroke-width="5" stroke-linecap="round"/>
<rect x="294" y="32" width="80" height="80" rx="10" fill="#D9D9D9"/>
<defs>
<filter id="filter0_d_251_5104" x="335" y="62" width="58" height="58" filterUnits="userSpaceOnUse" color-interpolation-filters="sRGB">
<feFlood flood-opacity="0" result="BackgroundImageFix"/>
<feColorMatrix in="SourceAlpha" type="matrix" values="0 0 0 0 0 0 0 0 0 0 0 0 0 0 0 0 0 0 127 0" result="hardAlpha"/>
<feOffset dy="4"/>
<feGaussianBlur stdDeviation="2"/>
<feComposite in2="hardAlpha" operator="out"/>
<feColorMatrix type="matrix" values="0 0 0 0 0 0 0 0 0 0 0 0 0 0 0 0 0 0 0.1 0"/>
<feBlend mode="normal" in2="BackgroundImageFix" result="effect1_dropShadow_251_5104"/>
<feBlend mode="normal" in="SourceGraphic" in2="effect1_dropShadow_251_5104" result="shape"/>
</filter>
<filter id="filter1_d_251_5104" x="343" y="10" width="44" height="44" filterUnits="userSpaceOnUse" color-interpolation-filters="sRGB">
<feFlood flood-opacity="0" result="BackgroundImageFix"/>
<feColorMatrix in="SourceAlpha" type="matrix" values="0 0 0 0 0 0 0 0 0 0 0 0 0 0 0 0 0 0 127 0" result="hardAlpha"/>
<feOffset dx="1" dy="1"/>
<feGaussianBlur stdDeviation="1.5"/>
<feComposite in2="hardAlpha" operator="out"/>
<feColorMatrix type="matrix" values="0 0 0 0 0 0 0 0 0 0 0 0 0 0 0 0 0 0 0.25 0"/>
<feBlend mode="normal" in2="BackgroundImageFix" result="effect1_dropShadow_251_5104"/>
<feBlend mode="normal" in="SourceGraphic" in2="effect1_dropShadow_251_5104" result="shape"/>
</filter>
<filter id="filter2_d_251_5104" x="0" y="0" width="401" height="216" filterUnits="userSpaceOnUse" color-interpolation-filters="sRGB">
<feFlood flood-opacity="0" result="BackgroundImageFix"/>
<feColorMatrix in="SourceAlpha" type="matrix" values="0 0 0 0 0 0 0 0 0 0 0 0 0 0 0 0 0 0 127 0" result="hardAlpha"/>
<feOffset dy="-2"/>
<feGaussianBlur stdDeviation="2"/>
<feComposite in2="hardAlpha" operator="out"/>
<feColorMatrix type="matrix" values="0 0 0 0 0 0 0 0 0 0 0 0 0 0 0 0 0 0 0.1 0"/>
<feBlend mode="normal" in2="BackgroundImageFix" result="effect1_dropShadow_251_5104"/>
<feBlend mode="normal" in="SourceGraphic" in2="effect1_dropShadow_251_5104" result="shape"/>
</filter>
</defs>
</svg>
