<svg width="393" height="55" viewBox="0 0 393 55" fill="none" xmlns="http://www.w3.org/2000/svg">
<rect width="393" height="55" fill="white"/>
<line y1="54.5" x2="393" y2="54.5" stroke="#CCCCCC"/>
<line y1="54.5" x2="131" y2="54.5" stroke="black"/>
<path d="M71.7554 27.998L71.0534 29.15C69.2174 28.556 67.8314 27.278 67.1474 25.676C66.4634 27.512 65.0054 28.952 63.0794 29.636L62.3234 28.466C64.7534 27.62 66.3734 25.532 66.3734 23.21V22.58H62.7554V21.392H71.4134V22.58H67.8494V23.21C67.8494 25.316 69.3794 27.206 71.7554 27.998ZM69.7934 35.144C72.1694 35.144 73.6274 34.478 73.6274 33.326C73.6274 32.192 72.1694 31.526 69.7934 31.526C67.3814 31.526 65.9414 32.192 65.9414 33.326C65.9414 34.478 67.3814 35.144 69.7934 35.144ZM69.7934 30.356C73.0694 30.356 75.1034 31.454 75.1034 33.326C75.1034 35.216 73.0694 36.314 69.7934 36.314C66.4814 36.314 64.4654 35.216 64.4654 33.326C64.4654 31.454 66.4814 30.356 69.7934 30.356ZM74.9234 24.272H77.3174V25.514H74.9234V29.942H73.4474V20.204H74.9234V24.272ZM92.886 28.07L92.256 29.294C89.79 28.772 87.252 27.098 86.208 24.794C85.164 27.098 82.644 28.772 80.16 29.294L79.548 28.07C82.374 27.566 85.434 25.19 85.434 22.508V21.266H86.982V22.508C86.982 25.19 90.06 27.566 92.886 28.07ZM86.946 33.02H93.606V34.226H78.954V33.02H85.47V29.096H86.946V33.02Z" fill="black"/>
<path d="M194.001 31.076V26.828H189.501V31.076H194.001ZM199.221 20.186H200.697V36.368H199.221V27.368H195.441V32.282H188.043V21.464H189.501V25.658H194.001V21.464H195.441V26.18H199.221V20.186ZM217.868 28.304L217.202 29.528C214.754 28.97 212.234 27.242 211.208 24.866C210.182 27.224 207.662 28.952 205.232 29.528L204.566 28.304C207.392 27.746 210.434 25.316 210.434 22.562V21.32H211.982V22.562C211.982 25.316 215.042 27.764 217.868 28.304ZM203.954 32.948H218.588V34.172H203.954V32.948Z" fill="black"/>
<path d="M312.576 24.38H315.762V20.204H317.256V29.816H315.762V25.586H312.576V24.38ZM313.476 28.052L312.738 29.204C310.938 28.556 309.552 27.224 308.85 25.568C308.166 27.44 306.672 28.952 304.782 29.672L304.008 28.502C306.42 27.62 308.076 25.442 308.076 23.12V22.562H304.476V21.374H313.098V22.562H309.552V23.12C309.552 25.19 311.136 27.224 313.476 28.052ZM311.928 35.18C314.358 35.18 315.834 34.496 315.834 33.326C315.834 32.156 314.358 31.454 311.928 31.454C309.498 31.454 308.022 32.156 308.022 33.326C308.022 34.496 309.498 35.18 311.928 35.18ZM311.928 30.32C315.24 30.32 317.31 31.418 317.31 33.326C317.31 35.234 315.24 36.332 311.928 36.332C308.616 36.332 306.546 35.234 306.546 33.326C306.546 31.418 308.616 30.32 311.928 30.32ZM331.889 23.858V22.004H322.241V20.816H333.383V24.974H323.771V26.954H333.743V28.142H322.295V23.858H331.889ZM335.147 29.816V31.004H331.331V36.35H329.855V31.004H325.787V36.35H324.311V31.004H320.495V29.816H335.147ZM346.431 27.998L345.729 29.15C343.893 28.556 342.507 27.278 341.823 25.676C341.139 27.512 339.681 28.952 337.755 29.636L336.999 28.466C339.429 27.62 341.049 25.532 341.049 23.21V22.58H337.431V21.392H346.089V22.58H342.525V23.21C342.525 25.316 344.055 27.206 346.431 27.998ZM344.469 35.144C346.845 35.144 348.303 34.478 348.303 33.326C348.303 32.192 346.845 31.526 344.469 31.526C342.057 31.526 340.617 32.192 340.617 33.326C340.617 34.478 342.057 35.144 344.469 35.144ZM344.469 30.356C347.745 30.356 349.779 31.454 349.779 33.326C349.779 35.216 347.745 36.314 344.469 36.314C341.157 36.314 339.141 35.216 339.141 33.326C339.141 31.454 341.157 30.356 344.469 30.356ZM349.599 24.272H351.993V25.514H349.599V29.942H348.123V20.204H349.599V24.272Z" fill="black"/>
<circle cx="45" cy="28" r="9" fill="#D9D9D9"/>
<circle cx="171" cy="28" r="9" fill="#D9D9D9"/>
<circle cx="287" cy="28" r="9" fill="#D9D9D9"/>
</svg>
