<svg width="371" height="112" viewBox="0 0 371 112" fill="none" xmlns="http://www.w3.org/2000/svg">
<g filter="url(#filter0_d_278_3559)">
<rect x="4" width="363" height="104" fill="white"/>
<rect x="4.5" y="0.5" width="362" height="103" stroke="#2F6AE9"/>
</g>
<rect x="19.5" y="9.5" width="29" height="19" rx="9.5" fill="white" stroke="#006BFF"/>
<path d="M29.4708 20.49H30.2908V23.79H29.4708V20.49ZM25.8008 20.2H33.9708V20.89H25.8008V20.2ZM29.4608 16.29H30.1908V16.52C30.1908 18.08 28.5008 19.23 26.6008 19.52L26.3108 18.86C27.9408 18.64 29.4608 17.65 29.4608 16.52V16.29ZM29.5708 16.29H30.2908V16.52C30.2908 17.64 31.8208 18.64 33.4408 18.86L33.1408 19.52C31.2508 19.24 29.5708 18.06 29.5708 16.52V16.29ZM26.5908 15.85H33.1808V16.53H26.5908V15.85ZM29.4708 14.74H30.2908V16.09H29.4708V14.74ZM37.25 16.44H37.93V16.89C37.93 18.52 36.94 19.86 35.43 20.39L35.02 19.74C36.36 19.28 37.25 18.16 37.25 16.89V16.44ZM37.39 16.44H38.08V16.89C38.08 18.09 39 19.15 40.34 19.57L39.93 20.23C38.42 19.73 37.39 18.45 37.39 16.89V16.44ZM35.25 15.95H40.07V16.62H35.25V15.95ZM37.25 14.8H38.08V16.2H37.25V14.8ZM39.77 17.52H42.05V18.21H39.77V17.52ZM41.6 14.75H42.43V21.49H41.6V14.75ZM36.66 22.9H42.68V23.58H36.66V22.9ZM36.66 20.89H37.49V23.27H36.66V20.89Z" fill="#2F6AE9"/>
<path d="M60.9278 12.944H62.5358V24.056H60.9278V12.944ZM62.1158 17.192H64.0718V18.5H62.1158V17.192ZM58.0118 14.096H59.5718C59.5718 17.432 58.2998 20.288 54.6038 22.148L53.7158 20.936C56.6318 19.424 58.0118 17.384 58.0118 14.372V14.096ZM54.3278 14.096H58.8278V15.38H54.3278V14.096ZM67.3348 14.192H68.6428V14.888C68.6428 17.012 67.6468 18.92 65.4988 19.628L64.7068 18.368C66.5548 17.756 67.3348 16.304 67.3348 14.888V14.192ZM67.6588 14.192H68.9548V14.888C68.9548 16.184 69.6988 17.456 71.4868 17.996L70.7308 19.244C68.6188 18.608 67.6588 16.868 67.6588 14.888V14.192ZM65.1268 13.7H71.1268V14.972H65.1268V13.7ZM72.0148 12.956H73.6108V19.544H72.0148V12.956ZM73.1668 15.512H75.0868V16.82H73.1668V15.512ZM69.9868 19.748C72.2908 19.748 73.7428 20.552 73.7428 21.908C73.7428 23.264 72.2908 24.068 69.9868 24.068C67.6708 24.068 66.2188 23.264 66.2188 21.908C66.2188 20.552 67.6708 19.748 69.9868 19.748ZM69.9868 20.996C68.5708 20.996 67.8028 21.284 67.8028 21.908C67.8028 22.532 68.5708 22.844 69.9868 22.844C71.4028 22.844 72.1588 22.532 72.1588 21.908C72.1588 21.284 71.4028 20.996 69.9868 20.996ZM83.4859 12.956H85.0579V24.068H83.4859V12.956ZM84.1939 17.06H86.1499V18.368H84.1939V17.06ZM75.9619 13.964H77.2699V16.52H77.9299V13.964H79.2139V21.5H75.9619V13.964ZM77.2699 17.768V20.216H77.9299V17.768H77.2699ZM79.6459 13.964H80.9299V16.52H81.6019V13.964H82.9099V21.5H79.6459V13.964ZM80.9299 17.768V20.216H81.6019V17.768H80.9299ZM86.9409 18.956H97.0089V20.228H86.9409V18.956ZM88.2009 22.604H96.0369V23.876H88.2009V22.604ZM88.2009 20.84H89.7969V23.156H88.2009V20.84ZM88.1769 13.208H95.7849V16.292H89.7729V17.444H88.1889V15.164H94.2129V14.42H88.1769V13.208ZM88.1889 17.072H96.0009V18.272H88.1889V17.072ZM100.197 21.8068L100.151 22.2756C100.114 22.6506 100.043 23.0241 99.9375 23.3963C99.8352 23.7713 99.7273 24.1108 99.6136 24.4148C99.5028 24.7188 99.4134 24.9574 99.3452 25.1307H98.169C98.2116 24.9631 98.2699 24.7287 98.3438 24.4276C98.4176 24.1293 98.4872 23.794 98.5526 23.4219C98.6179 23.0497 98.6591 22.6705 98.6761 22.2841L98.6974 21.8068H100.197ZM105.216 13.448H112.26V14.72H105.216V13.448ZM103.98 18.26H114.036V19.532H103.98V18.26ZM111.3 13.448H112.872V14.492C112.872 15.668 112.872 16.904 112.512 18.632L110.94 18.476C111.3 16.832 111.3 15.632 111.3 14.492V13.448ZM111.78 15.704V16.856L105.096 17.132L104.904 15.848L111.78 15.704ZM105.144 22.604H113.028V23.876H105.144V22.604ZM105.144 20.336H106.74V22.916H105.144V20.336ZM122.651 12.956H124.259V18.536H122.651V12.956ZM119.159 13.364H120.911C120.911 16.412 119.243 18.056 115.739 18.764L115.187 17.48C118.151 16.952 119.159 15.752 119.159 14.276V13.364ZM115.775 13.364H120.287V14.636H115.775V13.364ZM116.843 18.992H124.259V22.004H118.463V23.216H116.867V20.864H122.651V20.216H116.843V18.992ZM116.867 22.724H124.535V23.96H116.867V22.724ZM126.058 19.172H136.126V20.456H126.058V19.172ZM130.258 20H131.842V24.08H130.258V20ZM131.062 13.328C133.438 13.328 135.082 14.312 135.082 15.836C135.082 17.348 133.438 18.32 131.062 18.32C128.698 18.32 127.054 17.348 127.054 15.836C127.054 14.312 128.698 13.328 131.062 13.328ZM131.062 14.6C129.61 14.6 128.686 15.032 128.686 15.836C128.686 16.628 129.61 17.06 131.062 17.06C132.526 17.06 133.438 16.628 133.438 15.836C133.438 15.032 132.526 14.6 131.062 14.6ZM142.773 15.32H145.353V16.604H142.773V15.32ZM139.641 13.64H140.925V14.84C140.925 17.108 139.977 19.04 137.877 19.808L137.037 18.56C138.873 17.948 139.641 16.412 139.641 14.84V13.64ZM139.989 13.64H141.261V14.852C141.261 16.28 141.993 17.708 143.745 18.308L142.893 19.532C140.901 18.812 139.989 16.952 139.989 14.852V13.64ZM144.801 12.968H146.397V21.164H144.801V12.968ZM139.041 22.604H146.637V23.876H139.041V22.604ZM139.041 20.336H140.649V23.312H139.041V20.336Z" fill="#0067C3"/>
<path d="M29.1523 58.2983C27.6466 58.2983 26.3042 58.0213 25.1253 57.4673C23.9534 56.9134 23.023 56.1499 22.3341 55.1768C21.6452 54.2038 21.2865 53.0888 21.2581 51.8317H25.7325C25.7822 52.6768 26.1373 53.3622 26.7979 53.8878C27.4584 54.4134 28.2432 54.6761 29.1523 54.6761C29.8767 54.6761 30.5159 54.5163 31.0699 54.1967C31.6309 53.87 32.0677 53.419 32.3802 52.8438C32.6998 52.2614 32.8596 51.5937 32.8596 50.8409C32.8596 50.0739 32.6963 49.3991 32.3696 48.8168C32.05 48.2344 31.6061 47.7798 31.0379 47.4531C30.4697 47.1264 29.8199 46.9595 29.0883 46.9524C28.4491 46.9524 27.8277 47.0838 27.224 47.3466C26.6274 47.6094 26.1622 47.968 25.8284 48.4226L21.7268 47.6875L22.7602 36.1818H36.0983V39.9531H26.5635L25.9988 45.4183H26.1267C26.5102 44.8786 27.089 44.4311 27.8632 44.076C28.6373 43.7209 29.5038 43.5433 30.4626 43.5433C31.7765 43.5433 32.9484 43.8523 33.9782 44.4702C35.0081 45.0881 35.8213 45.9368 36.4179 47.0163C37.0145 48.0888 37.3092 49.3246 37.3021 50.7237C37.3092 52.1939 36.9683 53.5007 36.2794 54.6442C35.5976 55.7805 34.6423 56.6754 33.4136 57.3288C32.192 57.9751 30.7716 58.2983 29.1523 58.2983ZM48.6586 58.2983C47.018 58.2983 45.5585 58.032 44.2801 57.4993C43.0088 56.9595 42.0109 56.2244 41.2865 55.294C40.5621 54.3636 40.1998 53.3089 40.1998 52.13C40.1998 51.2209 40.4058 50.3864 40.8177 49.6264C41.2368 48.8594 41.805 48.2237 42.5223 47.7195C43.2396 47.2081 44.0422 46.8814 44.93 46.7393V46.5902C43.7652 46.3558 42.8206 45.7912 42.0961 44.8963C41.3717 43.9943 41.0095 42.9467 41.0095 41.7536C41.0095 40.6243 41.3398 39.6193 42.0003 38.7386C42.6608 37.8509 43.5663 37.1548 44.7169 36.6506C45.8746 36.1392 47.1885 35.8835 48.6586 35.8835C50.1288 35.8835 51.4392 36.1392 52.5898 36.6506C53.7474 37.1619 54.6565 37.8615 55.317 38.7493C55.9775 39.63 56.3113 40.6314 56.3184 41.7536C56.3113 42.9538 55.942 44.0014 55.2105 44.8963C54.479 45.7912 53.5415 46.3558 52.398 46.5902V46.7393C53.2716 46.8814 54.0635 47.2081 54.7737 47.7195C55.491 48.2237 56.0592 48.8594 56.4783 49.6264C56.9044 50.3864 57.121 51.2209 57.1281 52.13C57.121 53.3089 56.7552 54.3636 56.0308 55.294C55.3064 56.2244 54.305 56.9595 53.0265 57.4993C51.7552 58.032 50.2993 58.2983 48.6586 58.2983ZM48.6586 54.9105C49.3902 54.9105 50.0294 54.7791 50.5763 54.5163C51.1231 54.2464 51.5493 53.8771 51.8547 53.4084C52.1672 52.9325 52.3234 52.3857 52.3234 51.7678C52.3234 51.1357 52.1636 50.5781 51.844 50.0952C51.5244 49.6051 51.0912 49.2216 50.5443 48.9446C49.9974 48.6605 49.3689 48.5185 48.6586 48.5185C47.9555 48.5185 47.327 48.6605 46.773 48.9446C46.219 49.2216 45.7822 49.6051 45.4626 50.0952C45.1501 50.5781 44.9939 51.1357 44.9939 51.7678C44.9939 52.3857 45.1466 52.9325 45.452 53.4084C45.7574 53.8771 46.1871 54.2464 46.741 54.5163C47.295 54.7791 47.9342 54.9105 48.6586 54.9105ZM48.6586 45.1626C49.2694 45.1626 49.8128 45.0384 50.2886 44.7898C50.7645 44.5412 51.1373 44.1967 51.4072 43.7564C51.6771 43.3161 51.8121 42.8082 51.8121 42.233C51.8121 41.6648 51.6771 41.1676 51.4072 40.7415C51.1373 40.3082 50.768 39.9709 50.2993 39.7294C49.8305 39.4808 49.2836 39.3565 48.6586 39.3565C48.0407 39.3565 47.4939 39.4808 47.018 39.7294C46.5422 39.9709 46.1693 40.3082 45.8994 40.7415C45.6366 41.1676 45.5052 41.6648 45.5052 42.233C45.5052 42.8082 45.6402 43.3161 45.9101 43.7564C46.18 44.1967 46.5528 44.5412 47.0287 44.7898C47.5045 45.0384 48.0479 45.1626 48.6586 45.1626Z" fill="black"/>
<path d="M60.1027 47.718H74.8447V48.942H60.1027V47.718ZM66.8347 48.33H68.3287V52.074H66.8347V48.33ZM61.9747 53.82H73.2067V55.044H61.9747V53.82ZM61.9747 50.634H63.4507V54.288H61.9747V50.634ZM62.0647 39.636H63.5407V41.706H71.4067V39.636H72.9007V46.152H62.0647V39.636ZM63.5407 42.876V44.946H71.4067V42.876H63.5407Z" fill="#424242"/>
<path d="M22.9292 74.1094C22.4136 74.1094 21.9539 74.0208 21.5503 73.8437C21.1493 73.6667 20.8302 73.4206 20.5933 73.1055C20.3589 72.7878 20.2313 72.4193 20.2104 72H21.1948C21.2157 72.2578 21.3042 72.4805 21.4604 72.668C21.6167 72.8529 21.8211 72.9961 22.0737 73.0977C22.3263 73.1992 22.6063 73.25 22.9136 73.25C23.2573 73.25 23.562 73.1901 23.8276 73.0703C24.0933 72.9505 24.3016 72.7839 24.4526 72.5703C24.6037 72.3568 24.6792 72.1094 24.6792 71.8281C24.6792 71.5339 24.6063 71.2747 24.4604 71.0508C24.3146 70.8242 24.1011 70.6471 23.8198 70.5195C23.5386 70.3919 23.1948 70.3281 22.7886 70.3281H22.1479V69.4687H22.7886C23.1063 69.4687 23.3849 69.4115 23.6245 69.2969C23.8667 69.1823 24.0555 69.0208 24.1909 68.8125C24.3289 68.6042 24.3979 68.3594 24.3979 68.0781C24.3979 67.8073 24.3381 67.5716 24.2183 67.3711C24.0985 67.1706 23.9292 67.0143 23.7104 66.9023C23.4943 66.7904 23.2391 66.7344 22.9448 66.7344C22.6688 66.7344 22.4084 66.7852 22.1636 66.8867C21.9214 66.9857 21.7235 67.1302 21.5698 67.3203C21.4162 67.5078 21.3328 67.7344 21.3198 68H20.3823C20.3979 67.5807 20.5243 67.2135 20.7612 66.8984C20.9982 66.5807 21.3081 66.3333 21.6909 66.1562C22.0763 65.9792 22.4995 65.8906 22.9604 65.8906C23.4552 65.8906 23.8797 65.9909 24.2339 66.1914C24.5881 66.3893 24.8602 66.651 25.0503 66.9766C25.2404 67.3021 25.3354 67.6536 25.3354 68.0313C25.3354 68.4818 25.217 68.8659 24.98 69.1836C24.7456 69.5013 24.4266 69.7214 24.0229 69.8438V69.9062C24.5282 69.9896 24.9227 70.2044 25.2065 70.5508C25.4904 70.8945 25.6323 71.3203 25.6323 71.8281C25.6323 72.263 25.5138 72.6536 25.2769 73C25.0425 73.3437 24.7222 73.6146 24.3159 73.8125C23.9097 74.0104 23.4474 74.1094 22.9292 74.1094ZM27.6704 74.0625C27.4777 74.0625 27.3123 73.9935 27.1743 73.8555C27.0363 73.7174 26.9673 73.5521 26.9673 73.3594C26.9673 73.1667 27.0363 73.0013 27.1743 72.8633C27.3123 72.7253 27.4777 72.6562 27.6704 72.6562C27.8631 72.6562 28.0285 72.7253 28.1665 72.8633C28.3045 73.0013 28.3735 73.1667 28.3735 73.3594C28.3735 73.487 28.341 73.6042 28.2759 73.7109C28.2134 73.8177 28.1287 73.9036 28.022 73.9687C27.9178 74.0313 27.8006 74.0625 27.6704 74.0625ZM32.3511 74.1094C31.8927 74.1094 31.48 74.0182 31.1128 73.8359C30.7456 73.6536 30.4513 73.4036 30.23 73.0859C30.0086 72.7682 29.8875 72.4062 29.8667 72H30.8042C30.8407 72.362 31.0047 72.6615 31.2964 72.8984C31.5907 73.1328 31.9422 73.25 32.3511 73.25C32.6792 73.25 32.9709 73.1732 33.2261 73.0195C33.4839 72.8659 33.6857 72.6549 33.8315 72.3867C33.98 72.1159 34.0542 71.8099 34.0542 71.4687C34.0542 71.1198 33.9774 70.8086 33.8237 70.5352C33.6727 70.2591 33.4644 70.0417 33.1987 69.8828C32.9331 69.724 32.6297 69.6432 32.2886 69.6406C32.0438 69.638 31.7925 69.6758 31.5347 69.7539C31.2769 69.8294 31.0646 69.9271 30.8979 70.0469L29.9917 69.9375L30.4761 66H34.6323V66.8594H31.2886L31.0073 69.2187H31.0542C31.2183 69.0885 31.424 68.9805 31.6714 68.8945C31.9188 68.8086 32.1766 68.7656 32.4448 68.7656C32.9344 68.7656 33.3706 68.8828 33.7534 69.1172C34.1388 69.349 34.4409 69.6667 34.6597 70.0703C34.881 70.474 34.9917 70.9349 34.9917 71.4531C34.9917 71.9635 34.8771 72.4193 34.6479 72.8203C34.4214 73.2187 34.1089 73.5339 33.7104 73.7656C33.312 73.9948 32.8589 74.1094 32.3511 74.1094ZM37.4185 71.8125L37.4028 70.6719H37.5903L40.2153 68H41.356L38.5591 70.8281H38.481L37.4185 71.8125ZM36.5591 74V66H37.481V74H36.5591ZM40.3716 74L38.0278 71.0312L38.6841 70.3906L41.5435 74H40.3716ZM42.5425 74V68H43.4331V68.9375H43.5112C43.6362 68.6172 43.8381 68.3685 44.1167 68.1914C44.3953 68.0117 44.73 67.9219 45.1206 67.9219C45.5164 67.9219 45.8459 68.0117 46.1089 68.1914C46.3745 68.3685 46.5815 68.6172 46.73 68.9375H46.7925C46.9461 68.6276 47.1766 68.3815 47.4839 68.1992C47.7912 68.0143 48.1597 67.9219 48.5894 67.9219C49.1258 67.9219 49.5646 68.0898 49.9058 68.4258C50.2469 68.7591 50.4175 69.2786 50.4175 69.9844V74H49.4956V69.9844C49.4956 69.5417 49.3745 69.2253 49.1323 69.0352C48.8901 68.8451 48.605 68.75 48.2769 68.75C47.855 68.75 47.5282 68.8776 47.2964 69.1328C47.0646 69.3854 46.9487 69.7057 46.9487 70.0937V74H46.0112V69.8906C46.0112 69.5495 45.9006 69.2747 45.6792 69.0664C45.4578 68.8555 45.1727 68.75 44.8237 68.75C44.5841 68.75 44.3602 68.8138 44.1519 68.9414C43.9461 69.069 43.7795 69.2461 43.6519 69.4727C43.5269 69.6966 43.4644 69.9557 43.4644 70.25V74H42.5425ZM57.6812 74.1094C57.2228 74.1094 56.8101 74.0182 56.4429 73.8359C56.0757 73.6536 55.7814 73.4036 55.5601 73.0859C55.3387 72.7682 55.2176 72.4062 55.1968 72H56.1343C56.1707 72.362 56.3348 72.6615 56.6265 72.8984C56.9207 73.1328 57.2723 73.25 57.6812 73.25C58.0093 73.25 58.3009 73.1732 58.5562 73.0195C58.814 72.8659 59.0158 72.6549 59.1616 72.3867C59.3101 72.1159 59.3843 71.8099 59.3843 71.4687C59.3843 71.1198 59.3075 70.8086 59.1538 70.5352C59.0028 70.2591 58.7944 70.0417 58.5288 69.8828C58.2632 69.724 57.9598 69.6432 57.6187 69.6406C57.3739 69.638 57.1226 69.6758 56.8647 69.7539C56.6069 69.8294 56.3947 69.9271 56.228 70.0469L55.3218 69.9375L55.8062 66H59.9624V66.8594H56.6187L56.3374 69.2187H56.3843C56.5483 69.0885 56.7541 68.9805 57.0015 68.8945C57.2489 68.8086 57.5067 68.7656 57.7749 68.7656C58.2645 68.7656 58.7007 68.8828 59.0835 69.1172C59.4689 69.349 59.771 69.6667 59.9897 70.0703C60.2111 70.474 60.3218 70.9349 60.3218 71.4531C60.3218 71.9635 60.2072 72.4193 59.978 72.8203C59.7515 73.2187 59.439 73.5339 59.0405 73.7656C58.6421 73.9948 58.189 74.1094 57.6812 74.1094ZM62.9634 72.9062L62.9009 73.3281C62.8566 73.625 62.7889 73.9427 62.6978 74.2813C62.6092 74.6198 62.5168 74.9388 62.4204 75.2383C62.3241 75.5378 62.2446 75.776 62.1821 75.9531H61.479C61.5129 75.7865 61.5571 75.5664 61.6118 75.293C61.6665 75.0195 61.7212 74.7135 61.7759 74.375C61.8332 74.0391 61.88 73.6953 61.9165 73.3437L61.9634 72.9062H62.9634ZM64.4683 72.3594V71.5625L67.9839 66H68.562V67.2344H68.1714L65.5151 71.4375V71.5H70.2495V72.3594H64.4683ZM68.2339 74V72.1172V71.7461V66H69.1558V74H68.2339ZM74.2134 74.1094C73.755 74.1094 73.3423 74.0182 72.9751 73.8359C72.6079 73.6536 72.3136 73.4036 72.0923 73.0859C71.8709 72.7682 71.7498 72.4062 71.729 72H72.6665C72.703 72.362 72.867 72.6615 73.1587 72.8984C73.453 73.1328 73.8045 73.25 74.2134 73.25C74.5415 73.25 74.8332 73.1732 75.0884 73.0195C75.3462 72.8659 75.548 72.6549 75.6938 72.3867C75.8423 72.1159 75.9165 71.8099 75.9165 71.4687C75.9165 71.1198 75.8397 70.8086 75.686 70.5352C75.535 70.2591 75.3267 70.0417 75.061 69.8828C74.7954 69.724 74.492 69.6432 74.1509 69.6406C73.9061 69.638 73.6548 69.6758 73.397 69.7539C73.1392 69.8294 72.9269 69.9271 72.7603 70.0469L71.854 69.9375L72.3384 66H76.4946V66.8594H73.1509L72.8696 69.2187H72.9165C73.0806 69.0885 73.2863 68.9805 73.5337 68.8945C73.7811 68.8086 74.0389 68.7656 74.3071 68.7656C74.7967 68.7656 75.2329 68.8828 75.6157 69.1172C76.0011 69.349 76.3032 69.6667 76.522 70.0703C76.7433 70.474 76.854 70.9349 76.854 71.4531C76.854 71.9635 76.7394 72.4193 76.5103 72.8203C76.2837 73.2187 75.9712 73.5339 75.5728 73.7656C75.1743 73.9948 74.7212 74.1094 74.2134 74.1094ZM80.9058 74.1094C80.4474 74.1094 80.0347 74.0182 79.6675 73.8359C79.3003 73.6536 79.006 73.4036 78.7847 73.0859C78.5633 72.7682 78.4422 72.4062 78.4214 72H79.3589C79.3953 72.362 79.5594 72.6615 79.8511 72.8984C80.1453 73.1328 80.4969 73.25 80.9058 73.25C81.2339 73.25 81.5256 73.1732 81.7808 73.0195C82.0386 72.8659 82.2404 72.6549 82.3862 72.3867C82.5347 72.1159 82.6089 71.8099 82.6089 71.4687C82.6089 71.1198 82.5321 70.8086 82.3784 70.5352C82.2274 70.2591 82.019 70.0417 81.7534 69.8828C81.4878 69.724 81.1844 69.6432 80.8433 69.6406C80.5985 69.638 80.3472 69.6758 80.0894 69.7539C79.8315 69.8294 79.6193 69.9271 79.4526 70.0469L78.5464 69.9375L79.0308 66H83.187V66.8594H79.8433L79.562 69.2187H79.6089C79.7729 69.0885 79.9787 68.9805 80.2261 68.8945C80.4735 68.8086 80.7313 68.7656 80.9995 68.7656C81.4891 68.7656 81.9253 68.8828 82.3081 69.1172C82.6935 69.349 82.9956 69.6667 83.2144 70.0703C83.4357 70.474 83.5464 70.9349 83.5464 71.4531C83.5464 71.9635 83.4318 72.4193 83.2026 72.8203C82.9761 73.2187 82.6636 73.5339 82.2651 73.7656C81.8667 73.9948 81.4136 74.1094 80.9058 74.1094ZM95.1738 64.914H96.0868V70.007H95.1738V64.914ZM93.0178 67.301H95.3168V68.038H93.0178V67.301ZM91.9838 65.398H92.9408C92.9408 67.873 91.2248 69.49 88.3758 70.216L88.0568 69.479C90.5758 68.863 91.9838 67.554 91.9838 65.805V65.398ZM88.5848 65.398H92.7208V66.135H88.5848V65.398ZM89.6848 70.436H96.0868V72.889H90.6198V74.462H89.7178V72.185H95.1848V71.173H89.6848V70.436ZM89.7178 74.033H96.4168V74.759H89.7178V74.033ZM102.521 65.134C104.666 65.134 106.019 65.838 106.019 67.015C106.019 68.192 104.666 68.885 102.521 68.885C100.365 68.885 99.0229 68.192 99.0229 67.015C99.0229 65.838 100.365 65.134 102.521 65.134ZM102.521 65.86C100.937 65.86 99.9579 66.278 99.9579 67.015C99.9579 67.741 100.937 68.17 102.521 68.17C104.094 68.17 105.084 67.741 105.084 67.015C105.084 66.278 104.094 65.86 102.521 65.86ZM99.1219 71.448H105.909V74.726H99.1219V71.448ZM105.018 72.185H100.024V73.989H105.018V72.185ZM98.0219 69.743H107.009V70.48H98.0219V69.743Z" fill="black"/>
<path d="M27.0487 80.925H27.9617V87.635H27.0487V80.925ZM20.1957 81.761H26.0147V82.443H20.1957V81.761ZM23.1107 82.817C24.5407 82.817 25.4757 83.367 25.4757 84.247C25.4757 85.127 24.5407 85.688 23.1107 85.688C21.6917 85.688 20.7567 85.127 20.7567 84.247C20.7567 83.367 21.6917 82.817 23.1107 82.817ZM23.1107 83.444C22.2087 83.444 21.6147 83.752 21.6147 84.247C21.6147 84.742 22.2087 85.05 23.1107 85.05C24.0237 85.05 24.6067 84.742 24.6067 84.247C24.6067 83.752 24.0237 83.444 23.1107 83.444ZM22.6487 80.826H23.5727V82.091H22.6487V80.826ZM22.6487 85.358H23.5727V86.711H22.6487V85.358ZM19.9977 87.162L19.8767 86.447C21.6917 86.447 24.1557 86.436 26.2567 86.139L26.3227 86.777C24.1557 87.129 21.7797 87.162 19.9977 87.162ZM24.7277 87.789C26.8177 87.789 28.0167 88.317 28.0167 89.318C28.0167 90.319 26.8177 90.847 24.7277 90.847C22.6157 90.847 21.4167 90.319 21.4167 89.318C21.4167 88.317 22.6157 87.789 24.7277 87.789ZM24.7277 88.46C23.1987 88.46 22.3297 88.757 22.3297 89.318C22.3297 89.879 23.1987 90.176 24.7277 90.176C26.2457 90.176 27.1147 89.879 27.1147 89.318C27.1147 88.757 26.2457 88.46 24.7277 88.46ZM36.7499 80.903H37.6629V88.108H36.7499V80.903ZM37.3879 83.862H39.1369V84.621H37.3879V83.862ZM30.4029 85.6H31.1729C33.2189 85.6 34.3739 85.545 35.7049 85.27L35.8039 86.007C34.4399 86.293 33.2629 86.359 31.1729 86.359H30.4029V85.6ZM30.4029 81.761H34.7919V82.52H31.3049V86.007H30.4029V81.761ZM31.4699 89.89H38.1139V90.638H31.4699V89.89ZM31.4699 87.393H32.3829V90.231H31.4699V87.393ZM40.071 88.834H49.08V89.593H40.071V88.834ZM44.097 86.458H45.01V89.054H44.097V86.458ZM41.127 81.618H42.029V83.389H47.1V81.618H48.002V86.7H41.127V81.618ZM42.029 84.126V85.952H47.1V84.126H42.029ZM51.3231 85.556H58.1541V86.304H51.3231V85.556ZM50.1901 88.845H59.1991V89.615H50.1901V88.845ZM54.2161 85.875H55.1291V89.153H54.2161V85.875ZM51.3231 81.706H58.0551V82.454H52.2361V85.886H51.3231V81.706ZM66.3374 90.1094C66.0093 90.1042 65.6812 90.0417 65.353 89.9219C65.0249 89.8021 64.7254 89.6003 64.4546 89.3164C64.1838 89.0299 63.9663 88.6432 63.8022 88.1562C63.6382 87.6667 63.5562 87.0521 63.5562 86.3125C63.5562 85.6042 63.6226 84.9766 63.7554 84.4297C63.8882 83.8802 64.0809 83.418 64.3335 83.043C64.5861 82.6654 64.8908 82.3789 65.2476 82.1836C65.6069 81.9883 66.0119 81.8906 66.4624 81.8906C66.9103 81.8906 67.3088 81.9805 67.6577 82.1602C68.0093 82.3372 68.2957 82.5846 68.5171 82.9023C68.7384 83.2201 68.8817 83.5859 68.9468 84H67.9937C67.9051 83.6406 67.7332 83.3424 67.478 83.1055C67.2228 82.8685 66.8843 82.75 66.4624 82.75C65.8426 82.75 65.3543 83.0195 64.9976 83.5586C64.6434 84.0977 64.465 84.8542 64.4624 85.8281H64.5249C64.6707 85.6068 64.8439 85.418 65.0444 85.2617C65.2476 85.1029 65.4715 84.9805 65.7163 84.8945C65.9611 84.8086 66.2202 84.7656 66.4937 84.7656C66.952 84.7656 67.3713 84.8802 67.7515 85.1094C68.1317 85.3359 68.4364 85.6497 68.6655 86.0508C68.8947 86.4492 69.0093 86.9062 69.0093 87.4219C69.0093 87.9167 68.8986 88.3698 68.6772 88.7812C68.4559 89.1901 68.1447 89.5156 67.7437 89.7578C67.3452 89.9974 66.8765 90.1146 66.3374 90.1094ZM66.3374 89.25C66.6655 89.25 66.9598 89.168 67.2202 89.0039C67.4832 88.8398 67.6903 88.6198 67.8413 88.3437C67.995 88.0677 68.0718 87.7604 68.0718 87.4219C68.0718 87.0911 67.9976 86.7904 67.8491 86.5195C67.7033 86.2461 67.5015 86.0286 67.2437 85.8672C66.9884 85.7057 66.6968 85.625 66.3687 85.625C66.1213 85.625 65.8908 85.6745 65.6772 85.7734C65.4637 85.8698 65.2762 86.0026 65.1147 86.1719C64.9559 86.3411 64.8309 86.5352 64.7397 86.7539C64.6486 86.9701 64.603 87.1979 64.603 87.4375C64.603 87.7552 64.6772 88.0521 64.8257 88.3281C64.9767 88.6042 65.1825 88.8268 65.4429 88.9961C65.7059 89.1654 66.0041 89.25 66.3374 89.25Z" fill="black"/>
<defs>
<filter id="filter0_d_278_3559" x="0" y="0" width="371" height="112" filterUnits="userSpaceOnUse" color-interpolation-filters="sRGB">
<feFlood flood-opacity="0" result="BackgroundImageFix"/>
<feColorMatrix in="SourceAlpha" type="matrix" values="0 0 0 0 0 0 0 0 0 0 0 0 0 0 0 0 0 0 127 0" result="hardAlpha"/>
<feOffset dy="4"/>
<feGaussianBlur stdDeviation="2"/>
<feComposite in2="hardAlpha" operator="out"/>
<feColorMatrix type="matrix" values="0 0 0 0 0 0 0 0 0 0 0 0 0 0 0 0 0 0 0.25 0"/>
<feBlend mode="normal" in2="BackgroundImageFix" result="effect1_dropShadow_278_3559"/>
<feBlend mode="normal" in="SourceGraphic" in2="effect1_dropShadow_278_3559" result="shape"/>
</filter>
</defs>
</svg>
